<?xml version="1.0" encoding="UTF-8"?>
<svg xmlns="http://www.w3.org/2000/svg" xmlns:xlink="http://www.w3.org/1999/xlink" width="26pt" height="26pt" viewBox="0 0 26 26" version="1.1">
<g id="surface2263742">
<path style=" stroke:none;fill-rule:nonzero;fill:rgb(73.333333%,100%,0.392157%);fill-opacity:1;" d="M 11.808594 2.273438 C 6.824219 2.816406 2.816406 6.824219 2.273438 11.699219 C 1.734375 16.792969 4.660156 21.339844 9.101562 23.074219 C 9.425781 23.183594 9.75 22.964844 9.75 22.535156 L 9.75 20.800781 C 9.75 20.800781 9.316406 20.910156 8.773438 20.910156 C 7.257812 20.910156 6.609375 19.609375 6.5 18.851562 C 6.390625 18.417969 6.175781 18.089844 5.851562 17.765625 C 5.523438 17.660156 5.417969 17.660156 5.417969 17.550781 C 5.417969 17.332031 5.742188 17.332031 5.851562 17.332031 C 6.5 17.332031 7.042969 18.089844 7.257812 18.417969 C 7.800781 19.285156 8.449219 19.5 8.773438 19.5 C 9.207031 19.5 9.535156 19.390625 9.75 19.285156 C 9.859375 18.523438 10.183594 17.765625 10.832031 17.332031 C 8.339844 16.792969 6.5 15.382812 6.5 13 C 6.5 11.808594 7.042969 10.617188 7.800781 9.75 C 7.691406 9.535156 7.582031 8.992188 7.582031 8.234375 C 7.582031 7.800781 7.582031 7.148438 7.910156 6.5 C 7.910156 6.5 9.425781 6.5 10.941406 7.910156 C 11.484375 7.691406 12.242188 7.582031 13 7.582031 C 13.757812 7.582031 14.515625 7.691406 15.167969 7.910156 C 16.574219 6.5 18.199219 6.5 18.199219 6.5 C 18.417969 7.148438 18.417969 7.800781 18.417969 8.234375 C 18.417969 9.101562 18.308594 9.535156 18.199219 9.75 C 18.957031 10.617188 19.5 11.699219 19.5 13 C 19.5 15.382812 17.660156 16.792969 15.167969 17.332031 C 15.816406 17.875 16.25 18.851562 16.25 19.824219 L 16.25 22.640625 C 16.25 22.964844 16.574219 23.292969 17.007812 23.183594 C 21.015625 21.558594 23.832031 17.660156 23.832031 13.109375 C 23.832031 6.609375 18.308594 1.515625 11.808594 2.273438 Z M 11.808594 2.273438 "/>
</g>
</svg>
