<?xml version="1.0" encoding="UTF-8"?>
<svg xmlns="http://www.w3.org/2000/svg" xmlns:xlink="http://www.w3.org/1999/xlink" width="26pt" height="26pt" viewBox="0 0 26 26" version="1.1">
<g id="surface2261644">
<path style=" stroke:none;fill-rule:nonzero;fill:rgb(73.333333%,100%,0.392157%);fill-opacity:1;" d="M 7.023438 3.25 C 5.835938 3.25 4.875 4.210938 4.875 5.394531 C 4.875 6.582031 5.835938 7.5625 7.019531 7.5625 C 8.207031 7.5625 9.167969 6.582031 9.167969 5.394531 C 9.167969 4.210938 8.207031 3.25 7.023438 3.25 Z M 17.496094 8.9375 C 15.695312 8.9375 14.664062 9.878906 14.167969 10.816406 L 14.117188 10.816406 L 14.117188 9.191406 L 10.5625 9.191406 L 10.5625 21.125 L 14.265625 21.125 L 14.265625 15.21875 C 14.265625 13.660156 14.382812 12.15625 16.308594 12.15625 C 18.207031 12.15625 18.234375 13.929688 18.234375 15.316406 L 18.234375 21.125 L 21.9375 21.125 L 21.9375 14.570312 C 21.9375 11.363281 21.246094 8.9375 17.496094 8.9375 Z M 5.171875 9.191406 L 5.171875 21.125 L 8.875 21.125 L 8.875 9.191406 Z M 5.171875 9.191406 "/>
</g>
</svg>
