<?xml version="1.0" encoding="UTF-8"?>
<svg xmlns="http://www.w3.org/2000/svg" xmlns:xlink="http://www.w3.org/1999/xlink" width="26pt" height="26pt" viewBox="0 0 26 26" version="1.1">
<g id="surface3348944">
<path style=" stroke:none;fill-rule:nonzero;fill:rgb(73.333333%,100%,0.392157%);fill-opacity:1;" d="M 26 4.660156 C 25.027344 5.089844 24.050781 5.417969 22.964844 5.527344 C 24.050781 4.875 24.917969 3.792969 25.347656 2.597656 C 24.265625 3.25 23.183594 3.683594 21.992188 3.902344 C 20.910156 2.816406 19.5 2.167969 17.984375 2.167969 C 15.058594 2.167969 12.675781 4.550781 12.675781 7.472656 C 12.675781 7.910156 12.675781 8.339844 12.785156 8.667969 C 8.339844 8.449219 4.441406 6.390625 1.839844 3.140625 C 1.300781 3.902344 1.082031 4.875 1.082031 5.847656 C 1.082031 7.695312 2.058594 9.320312 3.464844 10.292969 C 2.597656 10.183594 1.734375 9.964844 1.082031 9.640625 C 1.082031 9.640625 1.082031 9.640625 1.082031 9.75 C 1.082031 12.347656 2.925781 14.515625 5.308594 14.949219 C 4.875 15.058594 4.441406 15.167969 3.902344 15.167969 C 3.574219 15.167969 3.25 15.167969 2.925781 15.058594 C 3.574219 17.222656 5.527344 18.742188 7.910156 18.742188 C 6.066406 20.152344 3.792969 21.015625 1.300781 21.015625 C 0.867188 21.015625 0.433594 21.015625 0 20.910156 C 2.382812 22.425781 5.199219 23.292969 8.125 23.292969 C 17.984375 23.292969 23.292969 15.167969 23.292969 8.125 C 23.292969 7.910156 23.292969 7.695312 23.292969 7.472656 C 24.375 6.714844 25.242188 5.742188 26 4.660156 "/>
</g>
</svg>
