<?xml version="1.0" encoding="UTF-8"?>
<svg xmlns="http://www.w3.org/2000/svg" xmlns:xlink="http://www.w3.org/1999/xlink" width="26pt" height="26pt" viewBox="0 0 26 26" version="1.1">
<g id="surface2261169">
<path style=" stroke:none;fill-rule:nonzero;fill:rgb(73.333333%,100%,0.392157%);fill-opacity:1;" d="M 8.667969 3.25 C 5.675781 3.25 3.25 5.675781 3.25 8.667969 L 3.25 17.332031 C 3.25 20.324219 5.675781 22.75 8.667969 22.75 L 17.332031 22.75 C 20.324219 22.75 22.75 20.324219 22.75 17.332031 L 22.75 8.667969 C 22.75 5.675781 20.324219 3.25 17.332031 3.25 Z M 19.5 5.417969 C 20.097656 5.417969 20.582031 5.902344 20.582031 6.5 C 20.582031 7.097656 20.097656 7.582031 19.5 7.582031 C 18.902344 7.582031 18.417969 7.097656 18.417969 6.5 C 18.417969 5.902344 18.902344 5.417969 19.5 5.417969 Z M 13 7.582031 C 15.992188 7.582031 18.417969 10.007812 18.417969 13 C 18.417969 15.992188 15.992188 18.417969 13 18.417969 C 10.007812 18.417969 7.582031 15.992188 7.582031 13 C 7.582031 10.007812 10.007812 7.582031 13 7.582031 Z M 13 9.75 C 11.203125 9.75 9.75 11.203125 9.75 13 C 9.75 14.796875 11.203125 16.25 13 16.25 C 14.796875 16.25 16.25 14.796875 16.25 13 C 16.25 11.203125 14.796875 9.75 13 9.75 Z M 13 9.75 "/>
</g>
</svg>
